<svg t="1703328160451" class="icon" viewBox="0 0 1024 1024" version="1.1" xmlns="http://www.w3.org/2000/svg" p-id="8774" width="200" height="200"><path d="M865.133 64.34H156.88c-51.3 0-92.886 41.587-92.886 92.885v708.253c0 51.299 41.586 92.886 92.886 92.886h708.253c51.3 0 92.886-41.587 92.886-92.886V157.225c0-51.298-41.586-92.885-92.886-92.885zM752.128 390.963L449.775 693.316c-5.965 5.964-16.312 5.285-23.114-1.516l-20.274-20.274L270.922 536.06c-6.802-6.801-6.802-17.829 0-24.63l36.945-36.946c6.801-6.803 17.828-6.803 24.63 0l106.48 106.48 251.576-251.577c5.964-5.964 16.312-5.285 23.113 1.517l36.944 36.943c6.804 6.804 7.482 17.15 1.518 23.115z"  p-id="8775"></path></svg>