<svg t="1703328604769" class="icon" viewBox="0 0 1024 1024" version="1.1" xmlns="http://www.w3.org/2000/svg" p-id="13640" width="200" height="200"><path d="M416 320 256 320 256 64l160 0L416 320zM320 256l32 0L352 128l-32 0L320 256zM768 320l-160 0L608 64l160 0L768 320zM672 256l32 0L704 128l-32 0L672 256zM1024 960 0 960 0 160l192 0 0 64L64 224l0 672 896 0L960 224l-128 0L832 160l192 0L1024 960zM480 160l64 0 0 64-64 0L480 160zM256 576l512 0 0 64L256 640 256 576zM256 704l512 0 0 64L256 768 256 704zM32 384l960 0 0 64L32 448 32 384z"  p-id="13641"></path></svg>