<svg t="1703327061198" class="icon" viewBox="0 0 1024 1024" version="1.1" xmlns="http://www.w3.org/2000/svg" p-id="5317" width="200" height="200"><path d="M1024 0H0v1024h1024V0z" fill="#FFFFFF" fill-opacity=".01" p-id="5318"></path><path d="M53.376 192c0-41.216 33.408-74.624 74.688-74.624h768c41.216 0 74.624 33.408 74.624 74.688v640c0 41.216-33.408 74.624-74.624 74.624H128a74.688 74.688 0 0 1-74.688-74.624V192z m74.688-10.624a10.688 10.688 0 0 0-10.688 10.688v640c0 5.888 4.8 10.624 10.688 10.624h768a10.688 10.688 0 0 0 10.624-10.624V192a10.688 10.688 0 0 0-10.624-10.688H128z" fill="#333333" p-id="5319"></path><path d="M335.296 355.904a32 32 0 0 1 16.64 28.096v256a32 32 0 0 1-64 0V442.688l-35.968 23.232a32 32 0 1 1-34.688-53.76l85.312-55.04a32 32 0 0 1 32.64-1.216zM609.344 353.344a32 32 0 0 1 35.904 12.928l112 168.064V384a32 32 0 1 1 64 0v256a32 32 0 0 1-58.56 17.728l-112.064-168.064V640a32 32 0 1 1-64 0V384a32 32 0 0 1 22.72-30.656zM469.376 394.624a32 32 0 0 1 32 32v21.312a32 32 0 1 1-64 0v-21.312a32 32 0 0 1 32-32zM469.376 544a32 32 0 0 1 32 32v21.312a32 32 0 1 1-64 0V576a32 32 0 0 1 32-32z"  p-id="5320"></path></svg>