<svg t="1703327399033" class="icon" viewBox="0 0 1024 1024" version="1.1" xmlns="http://www.w3.org/2000/svg" p-id="5940" width="200" height="200"><path d="M509.720648 506.669383a123.358222 123.358222 0 1 1 123.358223-123.358222 123.503349 123.503349 0 0 1-123.358223 123.358222z m0-169.315207a45.956985 45.956985 0 1 0 45.956985 45.956985 45.956985 45.956985 0 0 0-45.956985-45.956985z" p-id="5941"></path><path d="M471.02003 460.712398m38.700618 0l0 0q38.700619 0 38.700619 38.700619l0 224.89897q0 38.700619-38.700619 38.700619l0 0q-38.700619 0-38.700618-38.700619l0-224.89897q0-38.700619 38.700618-38.700619Z" p-id="5942"></path><path d="M647.688354 568.408964m0 38.700618l0 0q0 38.700619-38.700619 38.700619l-91.913969 0q-38.700619 0-38.700619-38.700619l0 0q0-38.700619 38.700619-38.700618l91.913969 0q38.700619 0 38.700619 38.700618Z" p-id="5943"></path><path d="M954.136784 177.460151L544.369796 6.850892a85.32277 85.32277 0 0 0-67.278607 0.12094L70.190466 177.351306l-0.350725 0.108845A40.139798 40.139798 0 0 0 45.591385 214.310396v343.286582a460.343859 460.343859 0 0 0 36.838151 181.251929 470.454396 470.454396 0 0 0 248.300751 248.300751 464.177639 464.177639 0 0 0 362.503858 0A466.910871 466.910871 0 0 0 978.397235 557.596978V214.310396a40.018859 40.018859 0 0 0-24.260451-36.850245z m-50.153583 380.136827c0 216.155049-175.870124 392.025173-392.025173 392.025174S119.969136 773.752028 119.969136 557.596978V237.192137L505.92315 75.556584l0.350725-0.108845a10.739422 10.739422 0 0 1 8.80439 0l388.832373 161.865338v320.283901z" p-id="5944"></path></svg>