<svg t="1703328663998" class="icon" viewBox="0 0 1024 1024" version="1.1" xmlns="http://www.w3.org/2000/svg" p-id="9918" width="200" height="200"><path d="M602.112 377.344L375.296 604.16c-12.288 12.288-12.288 32.768 0 45.056 6.144 6.144 14.336 9.216 22.528 9.216 8.192 0 16.384-3.072 22.528-9.216l226.816-226.816c12.288-12.288 12.288-32.768 0-45.056-12.288-12.288-32.768-12.288-45.056 0z" fill="#2C2C2C" p-id="9919"></path><path d="M898.56 284.672c15.36 0 27.648-12.288 27.648-27.136V126.976c0-15.36-12.288-27.648-27.648-27.648H768c-15.36 0-27.648 12.288-27.648 27.648v29.696H286.208v-29.696c0-15.36-12.288-27.648-27.648-27.648H128c-15.36 0-27.648 12.288-27.648 27.648v130.048c0 15.36 12.288 27.648 27.648 27.648h31.744v452.096H128c-15.36 0-27.648 12.288-27.648 27.648v130.56c0 15.36 12.288 27.648 27.648 27.648h130.56c14.848 0 27.136-12.288 27.648-27.648v-33.28h454.144v33.28c0 15.36 12.288 27.648 27.648 27.648h130.56c15.36 0 27.648-12.288 27.648-27.648v-130.56c0-15.36-12.288-27.648-27.648-27.648H865.28V284.672h33.28z m-102.912-130.56h75.264v75.264h-75.264V154.112z m-640 0h75.264v75.264H155.648V154.112z m75.264 713.216H155.648v-75.264h75.264v75.264z m640 0h-75.264v-75.264h75.264v75.264z m-69.632-130.56H768c-15.36 0-27.648 12.288-27.648 27.648v33.28H286.208v-33.28c0-15.36-12.288-27.648-27.648-27.648h-34.816V284.672h34.816c14.848 0 27.136-12.288 27.648-27.136v-36.864h454.144v36.352c0 15.36 12.288 27.648 27.648 27.648h33.28v452.096z"  p-id="9920"></path></svg>