<?xml version="1.0" standalone="no"?><!DOCTYPE svg PUBLIC "-//W3C//DTD SVG 1.1//EN" "http://www.w3.org/Graphics/SVG/1.1/DTD/svg11.dtd"><svg t="1719325910014" class="icon" viewBox="0 0 1321 1024" version="1.1" xmlns="http://www.w3.org/2000/svg" p-id="23655" xmlns:xlink="http://www.w3.org/1999/xlink" width="82.5625" height="64"><path d="M1098.873 72.671c-16.516 0-29.729-13.213-29.729-29.73s13.213-29.728 29.73-29.728 29.728 13.213 29.728 29.729-13.213 29.729-29.729 29.729z m0-54.503c-13.213 0-24.224 11.01-24.224 24.223s11.011 24.224 24.224 24.224 24.224-11.01 24.224-24.224-11.011-24.223-24.224-24.223z m-96.895 431.621c-16.516 0-29.729-13.213-29.729-29.729s13.213-29.729 29.73-29.729 29.729 13.213 29.729 29.73-13.213 29.728-29.73 29.728z m0-53.952c-13.212 0-24.223 11.01-24.223 24.223s11.01 24.224 24.223 24.224 24.224-11.01 24.224-24.224-11.01-24.223-24.224-24.223zM48.998 625.41c-16.516 0-29.73-13.213-29.73-29.73s13.214-29.728 29.73-29.728 29.729 13.213 29.729 29.729-13.213 29.729-29.73 29.729z m0-54.503c-13.213 0-24.224 11.01-24.224 24.223s11.01 24.224 24.224 24.224 24.224-11.01 24.224-24.224-11.011-24.223-24.224-24.223z m1194.116-206.452h-44.594c-1.651 0-2.752-1.101-2.752-2.753s1.1-2.752 2.752-2.752h44.594c1.652 0 2.753 1.1 2.753 2.752s-1.101 2.753-2.753 2.753z" fill="#3A9BFF" p-id="23656"></path><path d="M1221.092 387.028c-1.651 0-2.752-1.101-2.752-2.753v-44.593c0-1.652 1.1-2.753 2.752-2.753s2.753 1.101 2.753 2.753v44.593c0 1.101-1.1 2.753-2.753 2.753zM283.527 699.733h-44.594c-1.651 0-2.752-1.1-2.752-2.752s1.1-2.753 2.752-2.753h44.594c1.651 0 2.753 1.101 2.753 2.753s-1.652 2.752-2.753 2.752z" fill="#3A9BFF" p-id="23657"></path><path d="M260.955 722.305c-1.652 0-2.753-1.1-2.753-2.752v-44.594c0-1.651 1.101-2.753 2.753-2.753s2.753 1.102 2.753 2.753v44.594c0 1.1-1.102 2.752-2.753 2.752zM687.07 89.187h-44.594c-1.651 0-2.752-1.101-2.752-2.753s1.1-2.752 2.752-2.752h44.594c1.652 0 2.753 1.1 2.753 2.752s-1.652 2.753-2.753 2.753z" fill="#3A9BFF" p-id="23658"></path><path d="M664.499 111.76c-1.652 0-2.753-1.102-2.753-2.754V64.413c0-1.652 1.101-2.753 2.753-2.753s2.753 1.101 2.753 2.753v44.593c0 1.102-1.101 2.753-2.753 2.753z m-75.424 621.556h-95.243c-9.359 1.101-13.763-2.753-13.213-10.46 0-3.303 2.753-9.36 7.708-17.067l83.131-138.185c4.955-8.808 13.213-13.213 23.673-13.213 13.764 1.101 21.471 9.36 22.022 24.775V707.99h15.415c7.157 1.101 11.01 4.955 11.561 11.562-1.101 8.808-4.955 13.213-11.561 13.213h-15.415v48.447c-1.101 8.809-5.506 13.213-14.314 13.213-9.36 0-14.314-4.404-14.314-13.213v-47.897z m-71.57-24.774h71.57v-122.22h-1.1l-70.47 122.22zM664.5 676.06c1.652-75.423 28.077-116.163 79.277-121.118 49.549 4.955 75.424 45.695 78.177 121.118-3.304 75.424-29.73 115.063-78.177 118.366-50.099-3.303-76.524-42.942-79.277-118.366z m32.482 0c0 61.66 15.415 93.592 46.795 95.243 30.28-1.651 46.246-33.583 46.796-95.243-1.101-60.559-16.516-92.49-46.796-95.243-30.83 2.753-46.795 34.134-46.795 95.243z m248.843 57.256H850.58c-9.36 1.101-13.764-2.753-13.213-10.46 0-3.303 2.752-9.36 7.707-17.067l83.131-138.185c4.955-8.808 13.213-13.213 23.674-13.213 13.763 1.101 21.47 9.36 22.021 24.775V707.99h15.415c7.157 1.101 11.01 4.955 11.561 11.562-1.1 8.808-4.954 13.213-11.56 13.213h-14.865v48.447c-1.101 8.809-5.506 13.213-14.314 13.213-9.36 0-14.314-4.404-14.314-13.213v-47.897z m-71.57-24.774h71.57v-122.22h-1.101l-70.47 122.22z" fill="#3A9BFF" p-id="23659"></path><path d="M605.591 266.46c-17.066-42.391-120.017-40.74-229.574 3.303-109.006 44.043-183.88 114.512-166.813 156.904s120.018 40.74 229.574-3.304c109.007-44.593 183.88-114.511 166.813-156.903zM273.067 423.914c-8.809 3.854-19.27-0.55-22.572-9.91-3.854-8.808 0.55-19.269 9.91-22.572s19.268 0.55 22.571 9.91-0.55 19.269-9.91 22.572zM476.215 265.91c8.809-3.854 19.269 0.55 22.572 9.91 3.854 8.808-0.55 19.268-9.91 22.571-8.808 3.854-19.268-0.55-22.572-9.91-3.303-8.808 1.101-18.718 9.91-22.571z m-82.03 23.122c8.809-3.854 19.269 0.55 22.572 9.91 3.854 8.809-0.55 19.269-9.91 22.572s-19.269-0.55-22.572-9.91 1.101-18.718 9.91-22.572z m-88.637 61.66c-3.853-8.808 0.55-19.268 9.91-22.572s19.269 0.551 22.572 9.91c3.854 8.809-0.55 19.269-9.91 22.572-8.808 3.303-19.268-1.1-22.572-9.91zM432.172 408.5c-57.806 23.123-110.658 26.976-117.815 8.809-7.708-18.719 33.032-52.302 90.839-75.975 57.806-23.122 110.658-26.976 117.815-8.808 7.707 18.718-33.033 52.3-90.839 75.974zM563.2 307.2c-8.809 3.854-19.269-0.55-22.572-9.91-3.854-8.808 0.55-19.268 9.91-22.572s19.268 0.55 22.572 9.91c3.303 8.809-1.101 18.718-9.91 22.572z" fill="#C4E1FF" p-id="23660"></path><path d="M285.729 460.25c-40.74 0-70.469-11.011-79.277-33.033-18.168-44.593 56.154-115.062 169.015-160.206 53.402-21.471 106.804-33.583 150.296-34.134 44.594-0.55 73.772 11.011 82.581 32.482 18.168 44.594-56.155 115.063-169.015 160.207-57.256 23.122-111.76 34.683-153.6 34.683z m243.888-221.867h-3.303c-42.942 0.55-95.794 12.662-148.645 34.133-107.906 43.493-182.228 112.31-165.712 153.05s117.815 38.537 225.72-4.955S619.905 308.3 603.39 267.56c-7.707-19.269-34.133-29.178-73.772-29.178zM345.737 431.07c-18.167 0-30.279-4.404-34.133-13.213-8.258-20.37 32.482-55.054 92.49-79.277 28.078-11.562 56.155-18.719 78.728-20.37 23.673-1.652 39.088 2.752 42.941 13.213 3.854 9.91-3.853 24.223-22.021 39.088-17.617 14.314-42.391 28.628-70.469 40.19-33.583 13.763-64.963 20.369-87.535 20.369z m146.444-107.355c-2.753 0-6.056 0-8.809 0.55-22.021 1.652-49.548 8.81-77.075 19.82-61.11 24.774-95.243 57.256-89.738 72.12 6.056 14.865 53.402 14.314 114.512-10.46 27.527-11.01 52.301-25.324 69.368-39.088 15.965-13.213 23.122-25.325 20.37-33.032-2.753-6.607-12.663-9.91-28.628-9.91zM267.01 428.318c-2.753 0-5.506-0.55-7.708-1.651-4.955-2.202-8.808-6.056-11.01-11.011s-2.203-10.46 0-15.415c2.202-4.955 6.055-8.809 11.01-11.01 10.46-4.405 22.022 1.1 26.426 11.01s-1.101 22.021-11.01 26.426c-2.753 1.1-5.506 1.651-7.708 1.651z m0-35.234c-1.652 0-3.854 0.55-5.506 1.1-3.853 1.653-6.606 4.405-8.258 7.708-1.651 3.854-1.651 7.708 0 11.011 1.652 3.854 4.405 6.607 7.708 8.258 3.854 1.652 7.707 1.652 11.01 0 7.708-3.303 11.011-11.561 8.259-19.269-2.202-4.954-7.708-8.808-13.213-8.808z m54.503-28.628c-2.753 0-5.505-0.55-7.708-1.652-4.954-2.202-8.808-6.056-11.01-11.01-4.405-10.46 1.1-22.022 11.01-26.426 10.46-4.405 22.022 1.1 26.426 11.01 2.202 4.955 2.202 10.46 0 15.416-2.202 4.954-6.056 8.808-11.01 11.01-2.753 1.101-4.955 1.652-7.708 1.652z m0-35.234c-1.652 0-3.854 0.55-5.505 1.1-7.708 3.304-11.011 11.562-8.258 19.27 1.651 3.853 4.404 6.606 7.707 8.257 3.854 1.652 7.708 1.652 11.01 0 7.708-3.303 11.012-11.56 8.259-19.268-1.652-5.506-7.157-9.36-13.213-9.36z m79.277-3.854c-2.752 0-5.505-0.55-7.707-1.652-4.955-2.202-8.809-6.056-11.01-11.01-4.405-10.46 1.1-22.022 11.01-26.426 10.46-4.405 22.021 1.1 26.426 11.01 2.202 4.955 2.202 10.46 0 15.415-2.202 4.955-6.056 8.809-11.011 11.011-2.753 1.101-4.955 1.652-7.708 1.652z m-5.505-33.583c-7.708 3.303-11.01 11.561-8.258 19.269 1.652 3.854 4.404 6.606 7.707 8.258 3.854 1.651 7.708 1.651 11.011 0 3.854-1.652 6.607-4.404 8.258-7.708 1.652-3.853 1.652-7.707 0-11.01-2.752-8.259-11.01-12.112-18.718-8.81z m161.308 19.269c-2.753 0-5.506-0.55-7.708-1.652-4.955-2.202-8.809-6.056-11.01-11.01-2.203-4.955-2.203-10.46 0-15.416 2.201-4.954 6.055-8.808 11.01-11.01 10.46-4.405 22.022 1.1 26.426 11.01 2.202 4.955 2.202 10.46 0 15.415-2.202 4.955-6.056 8.809-11.01 11.011-2.754 1.101-5.506 1.652-7.708 1.652z m0-34.684c-1.652 0-3.854 0.55-5.506 1.101-3.854 1.652-6.606 4.404-8.258 7.707-1.652 3.854-1.652 7.708 0 11.011 3.303 7.708 11.561 11.011 19.269 8.258 3.854-1.651 6.606-4.404 8.258-7.707 1.652-3.854 1.652-7.708 0-11.011-2.753-6.056-8.258-9.36-13.763-9.36z m-73.772 25.875c-8.259 0-15.416-4.955-18.719-12.662-4.404-10.46 1.101-22.022 11.011-26.426 10.46-4.404 22.021 1.101 26.426 11.01 4.404 10.461-1.101 22.022-11.011 26.427-2.202 1.1-4.955 1.651-7.707 1.651z m-5.506-33.583c-7.707 3.304-11.01 11.562-8.258 19.27 3.303 7.707 11.561 11.01 19.269 8.257 7.707-3.303 11.01-11.561 8.258-19.269s-11.561-11.56-19.269-8.258z m76.707 108.242l4.36-3.359 121.63 157.883-4.366 3.359z m-237.6 94.686l5.5-0.336 10.24 164.297-5.5 0.341z m138.29-22.22l4.657-2.94 48.254 76.31-4.652 2.945z" fill="#3A9BFF" p-id="23661"></path><path d="M611.097 264.258c-9.36-22.572-39.639-34.684-85.334-34.133-12.111 0-24.223 1.1-37.436 3.303-8.258-17.617-24.224-30.83-45.144-38.538l14.314-33.582c1.1 0 2.202 0.55 3.303 0.55 2.202 0 3.854-0.55 6.056-1.101 3.854-1.652 7.157-4.404 8.809-8.258 1.651-3.854 1.651-8.258 0-12.112s-4.405-7.157-8.259-8.809a15.423 15.423 0 0 0-12.111 0c-3.854 1.652-7.157 4.405-8.809 8.259a15.423 15.423 0 0 0 0 12.111c1.101 2.753 3.303 5.506 6.056 7.157l-14.865 33.583c-1.1-0.55-2.202-0.55-3.853-1.1-26.426-6.607-57.256-4.405-85.884 7.156-28.628 12.112-52.852 31.38-67.166 54.503 0 0 0 0.55-0.55 0.55l-35.235-14.864c0.55-3.303 0.55-6.606-0.55-9.359-1.652-3.854-4.405-7.157-8.258-8.808-7.708-3.304-17.067 0.55-20.37 8.258-3.303 7.707 0.55 17.066 8.258 20.37 2.202 1.1 3.854 1.1 6.056 1.1s3.853-0.55 6.056-1.1c2.752-1.102 5.505-3.304 7.157-6.056l34.684 14.864c-11.011 20.92-13.764 42.392-7.157 61.66-51.751 38.538-78.727 78.727-67.166 108.456 9.36 23.123 39.639 34.134 82.03 34.134s97.445-11.562 154.701-34.684c113.961-45.695 188.835-117.815 170.667-163.51zM450.89 149.746c-1.1-2.752-1.1-5.505 0-7.707 1.101-2.753 3.304-4.405 5.506-5.506 1.1-0.55 2.752-0.55 3.853-0.55 1.102 0 2.753 0 3.854 0.55 4.955 2.202 7.708 8.258 5.506 13.213-2.203 4.955-8.258 7.708-13.213 5.506-2.202-1.101-4.405-3.304-5.506-5.506z m-211.406 89.738c-1.101 2.753-3.303 4.404-5.506 5.505-2.752 1.101-5.505 1.101-7.707 0-2.753-1.1-4.404-3.303-5.505-5.505-1.101-2.753-1.101-5.506 0-7.708 1.1-2.752 3.303-4.404 5.505-5.505 1.101-0.55 2.753-0.55 3.854-0.55 1.1 0 2.752 0 3.853 0.55 2.753 1.101 4.405 3.303 5.506 5.505s1.1 4.955 0 7.708z m50.65 19.82c13.212-21.472 35.234-39.089 62.21-50.1 26.426-11.01 54.503-13.213 79.278-7.157 20.92 5.506 36.886 17.067 45.694 32.482-32.482 5.505-67.165 15.415-102.4 29.73-35.785 14.313-67.716 31.38-94.142 49.547-5.505-17.066-1.651-36.335 9.36-54.503z m146.442 158.554c-104.602 42.391-206.451 45.144-222.417 6.607-15.965-39.089 59.458-107.355 164.06-149.747 52.301-20.92 104.603-33.032 147.544-33.583h3.304c38.537 0 64.413 9.91 71.57 27.527 15.965 38.538-59.459 106.805-164.06 149.196z" fill="#3A9BFF" p-id="23662"></path><path d="M1185.858 1011.338H439.33c-6.056 0-11.01-4.955-11.01-11.011s4.954-11.01 11.01-11.01h746.53c6.055 0 11.01 4.954 11.01 11.01s-4.955 11.01-11.01 11.01z m-838.469 0H174.52c-6.055 0-11.01-4.955-11.01-11.011s4.955-11.01 11.01-11.01h172.32c6.056 0 11.01 4.954 11.01 11.01s-4.404 11.01-10.46 11.01z m622.658-78.727H797.73c-6.056 0-11.01-4.955-11.01-11.011s4.954-11.01 11.01-11.01h172.318c6.056 0 11.011 4.954 11.011 11.01s-4.955 11.01-11.01 11.01z m-228.473 0h-50.099c-6.056 0-11.01-4.955-11.01-11.011s4.954-11.01 11.01-11.01h50.1c6.055 0 11.01 4.954 11.01 11.01s-4.955 11.01-11.01 11.01z m-115.613 0H295.64c-6.056 0-11.011-4.955-11.011-11.011s4.955-11.01 11.01-11.01h330.323c6.056 0 11.011 4.954 11.011 11.01s-4.955 11.01-11.01 11.01z m665.05-79.278h-70.47c-6.055 0-11.01-4.955-11.01-11.01s4.955-11.011 11.01-11.011h70.47c6.056 0 11.01 4.955 11.01 11.01s-4.954 11.011-11.01 11.011z m-128.276 0h-41.29c-6.056 0-11.01-4.955-11.01-11.01s4.954-11.011 11.01-11.011h41.29c6.056 0 11.011 4.955 11.011 11.01s-4.955 11.011-11.01 11.011z m-109.557 0H65.514c-6.056 0-11.01-4.955-11.01-11.01s4.954-11.011 11.01-11.011h987.664c6.056 0 11.011 4.955 11.011 11.01s-4.955 11.011-11.01 11.011z m-204.8-669.453h-2.202c-6.056-17.618-22.572-30.28-41.84-30.28S768 166.262 762.494 183.88h-1.652c-17.067 0-30.83 13.763-30.83 30.83 0 17.066 13.763 30.83 30.83 30.83h88.086c17.067 0 30.83-13.764 30.83-30.83-0.55-16.516-14.314-30.83-31.38-30.83z" fill="#C4E1FF" p-id="23663"></path><path d="M881.961 215.26c0-18.718-14.864-33.583-33.583-33.583h-0.55c-7.157-18.167-24.224-30.28-44.043-30.28-19.82 0-36.886 12.113-44.043 30.28-18.168 0-33.032 15.415-33.032 33.583 0 18.718 14.864 33.583 33.582 33.583h177.824v-5.505h-71.57c9.36-6.056 15.415-16.516 15.415-28.078z m-121.669 28.078c-15.415 0-28.077-12.663-28.077-28.078s12.662-28.077 28.077-28.077h3.304l0.55-1.652c5.506-17.066 21.471-28.077 39.639-28.077s33.583 11.561 39.639 28.077l0.55 1.652h4.404c15.416 0 28.078 12.662 28.078 28.077s-12.662 28.078-28.078 28.078h-88.086z m191.588 0h18.718v5.505H951.88z" fill="#3A9BFF" p-id="23664"></path><path d="M1006.933 202.047c0-24.223-19.268-43.492-43.492-43.492s-43.493 19.269-43.493 43.492h112.31" fill="#C4E1FF" p-id="23665"></path><path d="M1031.708 204.8H916.645v-2.753c0-25.324 20.92-46.245 46.245-46.245 24.775 0 44.594 19.269 46.245 43.493h22.022v5.505zM922.7 199.295h81.48c-1.652-21.471-19.27-37.987-40.74-37.987-21.471 0-39.639 16.516-40.74 37.987z m122.77 0h14.314v5.505h-14.314z" fill="#3A9BFF" p-id="23666"></path></svg>