<?xml version="1.0" standalone="no"?><!DOCTYPE svg PUBLIC "-//W3C//DTD SVG 1.1//EN" "http://www.w3.org/Graphics/SVG/1.1/DTD/svg11.dtd"><svg t="1719327496645" class="icon" viewBox="0 0 1077 1024" version="1.1" xmlns="http://www.w3.org/2000/svg" p-id="80754" xmlns:xlink="http://www.w3.org/1999/xlink" width="67.3125" height="64"><path d="M471.930435 329.46087v203.446539L952.765217 534.26087V374.917565z" fill="#DFE6EC" p-id="80755"></path><path d="M471.930435 329.46087v178.086956l-382.886957-39.027756v-55.865879z" fill="#D4DDE4" p-id="80756"></path><path d="M89.043478 409.6v522.284522L543.165217 1024V454.273113z" fill="#E0E7ED" p-id="80757"></path><path d="M88.4736 409.6L0 602.690783 454.691617 694.53913 543.165217 454.139548z" fill="#EEF6FB" p-id="80758"></path><path d="M952.765217 373.982609v521.313948L543.165217 1024V455.323826z" fill="#CDD5DD" p-id="80759"></path><path d="M952.435757 373.982609L1077.426087 575.772939 668.271304 703.443478 543.165217 454.673809z" fill="#D3DCE3" p-id="80760"></path><path d="M667.826087 31.770713L730.156522 8.904348l-5.520696 105.320626L688.724591 124.66087 667.826087 31.770713z m80.13913 103.370574L768.356174 151.373913 863.721739 34.860522 792.887652 0 747.965217 135.141287z m80.139131 48.88487L841.425252 222.608696 952.765217 184.026157 940.032 106.852174 828.104348 184.026157z" fill="#CBD0DC" p-id="80761"></path></svg>