<?xml version="1.0" standalone="no"?><!DOCTYPE svg PUBLIC "-//W3C//DTD SVG 1.1//EN" "http://www.w3.org/Graphics/SVG/1.1/DTD/svg11.dtd"><svg t="1719327555153" class="icon" viewBox="0 0 1024 1024" version="1.1" xmlns="http://www.w3.org/2000/svg" p-id="80924" xmlns:xlink="http://www.w3.org/1999/xlink" width="64" height="64"><path d="M0 874.666667a512 106.666667 0 1 0 1024 0 512 106.666667 0 1 0-1024 0Z" fill="#EBEEF3" p-id="80925"></path><path d="M227.562667 341.333333h568.874666L938.666667 618.666667H85.333333z" fill="#B5BFCF" p-id="80926"></path><path d="M280.533333 490.666667h441.6L789.333333 704H213.333333z" fill="#A1ACBD" p-id="80927"></path><path d="M469.333333 21.333333m32 0l0 0q32 0 32 32l0 149.333334q0 32-32 32l0 0q-32 0-32-32l0-149.333334q0-32 32-32Z" fill="#C3C9D3" p-id="80928"></path><path d="M815.488 82.325333c13.589333 7.850667 18.261333 25.237333 10.410667 38.848l-71.125334 123.178667a28.437333 28.437333 0 1 1-49.258666-28.458667l71.104-123.157333a28.437333 28.437333 0 0 1 38.869333-10.410667zM208.533333 82.325333a28.437333 28.437333 0 0 0-10.410666 38.848l71.104 123.178667a28.437333 28.437333 0 1 0 49.28-28.458667l-71.125334-123.157333a28.437333 28.437333 0 0 0-38.848-10.410667z" fill="#C3C9D3" p-id="80929"></path><path d="M327.104 640a42.666667 42.666667 0 0 1 42.666667 42.666667 42.666667 42.666667 0 0 0 42.666666 42.666666h199.125334a42.666667 42.666667 0 0 0 42.666666-42.666666 42.666667 42.666667 0 0 1 42.666667-42.666667H938.666667v213.333333a85.333333 85.333333 0 0 1-85.333334 85.333334H170.666667a85.333333 85.333333 0 0 1-85.333334-85.333334V640h241.770667z" fill="#BAC0CA" p-id="80930"></path><path d="M327.104 618.666667a42.666667 42.666667 0 0 1 42.666667 42.666666 42.666667 42.666667 0 0 0 42.666666 42.666667h199.125334a42.666667 42.666667 0 0 0 42.666666-42.666667 42.666667 42.666667 0 0 1 42.666667-42.666666H938.666667v213.333333a85.333333 85.333333 0 0 1-85.333334 85.333333H170.666667a85.333333 85.333333 0 0 1-85.333334-85.333333V618.666667h241.770667z" fill="#D7DDE8" p-id="80931"></path><path d="M362.666667 768m32 0l234.666666 0q32 0 32 32l0 0q0 32-32 32l-234.666666 0q-32 0-32-32l0 0q0-32 32-32Z" fill="#A1ACBD" p-id="80932"></path></svg>