<?xml version="1.0" standalone="no"?><!DOCTYPE svg PUBLIC "-//W3C//DTD SVG 1.1//EN" "http://www.w3.org/Graphics/SVG/1.1/DTD/svg11.dtd"><svg t="1719326500906" class="icon" viewBox="0 0 1024 1024" version="1.1" xmlns="http://www.w3.org/2000/svg" p-id="58615" xmlns:xlink="http://www.w3.org/1999/xlink" width="64" height="64"><path d="M184.2 336.2H135c-19.7 0-35.8 15.9-36.1 35.6v53.9l85.4 56.3V336.2zM889 336.2h-49.4V482l85.5-56.4v-53.3c0-19.9-16.1-36.1-36.1-36.1z" fill="#F7F8FC" p-id="58616"></path><path d="M839.6 283H689.4c-20 0-36.1-16.2-36.1-36.1V98.1l-0.1-0.1H220.4c-20 0-36.1 16.2-36.1 36.1v202.1h655.4V283z m-308.2 51.1h-223c-10 0-18.1-8.1-18.1-18.1 0-10 8.1-18.1 18.1-18.1h223c10 0 18.1 8.1 18.1 18.1 0.1 10-8.1 18.1-18.1 18.1z m0-92.5h-223c-10 0-18.1-8.1-18.1-18.1 0-10 8.1-18.1 18.1-18.1h223c10 0 18.1 8.1 18.1 18.1 0.1 10.1-8.1 18.1-18.1 18.1zM511.9 698.2L839.6 482V336.2H184.2V482l327.7 216.2zM308.5 390.3h406.9c10 0 18.1 8.1 18.1 18.1 0 10.1-8.2 18.1-18.1 18.1H308.5c-10 0-18.1-8.1-18.1-18.1-0.1-10 8-18.1 18.1-18.1z m0 92.4h406.9c10 0 18.1 8.1 18.1 18.1 0 10.1-8.2 18.1-18.1 18.1H308.5c-10 0-18.1-8.1-18.1-18.1-0.1-9.9 8-18.1 18.1-18.1z" fill="#DFE4EE" p-id="58617"></path><path d="M104.8 909.5c-1.1-1.6-2-3.3-2.8-5.1 0.7 1.8 1.7 3.5 2.8 5.1zM134.9 926h0.1c-9.9 0-18.9-4-25.4-10.4 6.5 6.4 15.4 10.4 25.3 10.4zM109.4 915.4c-1.5-1.5-3-3.2-4.2-5 1.3 1.8 2.7 3.4 4.2 5zM98.9 891.3c0.1 1.5 0.4 2.9 0.6 4.4-0.3-1.8-0.6-3.5-0.6-5.3v0.9zM101.4 902.8c-0.6-1.6-1.2-3.3-1.6-5 0.4 1.8 1 3.4 1.6 5zM888.9 926h0.1c20 0 36.1-16.2 36.1-36.1 0 19.9-16.2 36.1-36.2 36.1z" fill="#C9CFDD" p-id="58618"></path><path d="M839.6 756.3c0 19.9-16.1 36.1-36.1 36.1H654.7L857.1 926h31.8c20 0 36.2-16.2 36.2-36.1V425.6L839.6 482v274.3zM220.4 792.4c-19.9 0-36.1-16.1-36.1-36.1V482l-85.4-56.3v464.7c0 1.8 0.3 3.6 0.6 5.3 0.1 0.7 0.1 1.4 0.3 2.1 0.4 1.7 1 3.4 1.6 5 0.2 0.5 0.3 1.1 0.5 1.6 0.8 1.8 1.8 3.5 2.8 5.1 0.2 0.3 0.3 0.6 0.5 0.8 1.2 1.8 2.7 3.5 4.2 5l0.2 0.2C116.1 922 125 926 135 926h31.8l202.5-133.6H220.4z" fill="#C9CFDD" p-id="58619"></path><path d="M654.7 792.4h148.8c20 0 36.1-16.2 36.1-36.1V482L511.9 698.2l142.8 94.2zM184.2 482v274.3c0 20 16.2 36.1 36.1 36.1h148.8l142.7-94.2L184.2 482z" fill="#C9CFDD" p-id="58620"></path><path d="M369.2 792.4L166.7 926h690.4L654.7 792.4zM369.2 792.4h285.5l-142.8-94.2z" fill="#C9CFDD" p-id="58621"></path><path d="M531.4 205.4h-223c-10.1 0-18.1 8.2-18.1 18.1 0 10.1 8.2 18.1 18.1 18.1h223c10 0 18.1-8.1 18.1-18.1 0.1-10-8.1-18.1-18.1-18.1zM531.4 297.9h-223c-10.1 0-18.1 8.2-18.1 18.1 0 10.1 8.2 18.1 18.1 18.1h223c10 0 18.1-8.2 18.1-18.1 0.1-10.1-8.1-18.1-18.1-18.1zM308.5 426.5h406.9c10 0 18.1-8.1 18.1-18.1 0-10.1-8.2-18.1-18.1-18.1H308.5c-10.1 0-18.1 8.2-18.1 18.1-0.1 10 8.1 18.1 18.1 18.1zM308.5 519h406.9c10 0 18.1-8.1 18.1-18.1 0-10.1-8.2-18.1-18.1-18.1H308.5c-10.1 0-18.1 8.2-18.1 18.1-0.1 10 8.1 18.1 18.1 18.1z" fill="#F7F8FC" p-id="58622"></path><path d="M839.7 283L653.3 98v0.1L839.6 283z" fill="#DFE4EE" p-id="58623"></path><path d="M689.4 283h150.2L653.3 98.1v148.7c0 19.9 16.1 36.2 36.1 36.2z" fill="#C9CFDD" p-id="58624"></path></svg>