<?xml version="1.0" standalone="no"?><!DOCTYPE svg PUBLIC "-//W3C//DTD SVG 1.1//EN" "http://www.w3.org/Graphics/SVG/1.1/DTD/svg11.dtd"><svg height="1024" node-id="1" sillyvg="true" template-height="1024" template-width="1024" version="1.1" viewBox="0 0 1024 1024" width="1024" xmlns="http://www.w3.org/2000/svg" xmlns:xlink="http://www.w3.org/1999/xlink"><defs node-id="86"><linearGradient gradientUnits="objectBoundingBox" id="linearGradient-1" node-id="5" spreadMethod="pad" x1="0.5606294" x2="0.4056022" y1="0.09706833" y2="1"><stop offset="0" stop-color="#edf5ff"></stop><stop offset="1" stop-color="#a1b6cc"></stop></linearGradient><linearGradient gradientUnits="objectBoundingBox" id="linearGradient-2" node-id="8" spreadMethod="pad" x1="0.45343667" x2="0.5711975" y1="0.07584357" y2="1"><stop offset="0" stop-color="#eef4ff"></stop><stop offset="1" stop-color="#a1b6cc"></stop></linearGradient><linearGradient gradientUnits="objectBoundingBox" id="linearGradient-3" node-id="11" spreadMethod="pad" x1="0.42237335" x2="0.42237335" y1="1" y2="-0.44147897"><stop offset="0" stop-color="#f7f8f9"></stop><stop offset="1" stop-color="#d5e4f8"></stop></linearGradient><linearGradient gradientUnits="objectBoundingBox" id="linearGradient-4" node-id="14" spreadMethod="pad" x1="0.42237335" x2="0.42237335" y1="1" y2="-0.44147897"><stop offset="0" stop-color="#f7f8f9"></stop><stop offset="1" stop-color="#d5e4f8"></stop></linearGradient><linearGradient gradientUnits="objectBoundingBox" id="linearGradient-5" node-id="17" spreadMethod="pad" x1="0.42237335" x2="0.42237335" y1="0.9970967" y2="0.02857167"><stop offset="0" stop-color="#f2f4f9" stop-opacity="0"></stop><stop offset="1" stop-color="#e7eeff"></stop></linearGradient><linearGradient gradientUnits="objectBoundingBox" id="linearGradient-6" node-id="20" spreadMethod="pad" x1="0.5698649" x2="0.39122286" y1="0.09706833" y2="1"><stop offset="0" stop-color="#edf5ff"></stop><stop offset="1" stop-color="#a1b6cc"></stop></linearGradient><linearGradient gradientUnits="objectBoundingBox" id="linearGradient-7" node-id="23" spreadMethod="pad" x1="0.44341227" x2="0.5865253" y1="0.07584357" y2="1"><stop offset="0" stop-color="#eef4ff"></stop><stop offset="1" stop-color="#a1b6cc"></stop></linearGradient><linearGradient gradientUnits="objectBoundingBox" id="linearGradient-8" node-id="26" spreadMethod="pad" x1="0.570043" x2="0.39094552" y1="0.09706833" y2="1"><stop offset="0" stop-color="#edf5ff"></stop><stop offset="1" stop-color="#a1b6cc"></stop></linearGradient><linearGradient gradientUnits="objectBoundingBox" id="linearGradient-9" node-id="29" spreadMethod="pad" x1="0.44256106" x2="0.58782685" y1="0.07584357" y2="1"><stop offset="0" stop-color="#eef4ff"></stop><stop offset="1" stop-color="#a1b6cc"></stop></linearGradient><linearGradient gradientUnits="objectBoundingBox" id="linearGradient-10" node-id="32" spreadMethod="pad" x1="0.6668897" x2="0.6668897" y1="0" y2="1"><stop offset="0" stop-color="#969fae"></stop><stop offset="1" stop-color="#b7bcc6"></stop></linearGradient><linearGradient gradientUnits="objectBoundingBox" id="linearGradient-11" node-id="35" spreadMethod="pad" x1="0.5" x2="0.5" y1="0" y2="1"><stop offset="0.019749781" stop-color="#f0f6ff"></stop><stop offset="1" stop-color="#c3cada"></stop></linearGradient><linearGradient gradientUnits="objectBoundingBox" id="linearGradient-12" node-id="38" spreadMethod="pad" x1="0.5" x2="0.9977042" y1="0.31454057" y2="0.7841432"><stop offset="0" stop-color="#9da8bc"></stop><stop offset="1" stop-color="#dae5fa"></stop></linearGradient><linearGradient gradientUnits="objectBoundingBox" id="linearGradient-13" node-id="41" spreadMethod="pad" x1="0.5" x2="0.5" y1="0" y2="1"><stop offset="0.019749781" stop-color="#f0f6ff"></stop><stop offset="1" stop-color="#c3cada"></stop></linearGradient><linearGradient gradientUnits="objectBoundingBox" id="linearGradient-14" node-id="44" spreadMethod="pad" x1="0.25945288" x2="0.91833764" y1="0.081927255" y2="0.8611783"><stop offset="0" stop-color="#b3b6ba"></stop><stop offset="1" stop-color="#bfc2c8"></stop></linearGradient><linearGradient gradientUnits="objectBoundingBox" id="linearGradient-15" node-id="47" spreadMethod="pad" x1="0.15428159" x2="0.83689153" y1="0.15516427" y2="0.8157937"><stop offset="0" stop-color="#c7d4e6"></stop><stop offset="1" stop-color="#b0b6c6"></stop></linearGradient></defs><g node-id="213"><path d="M 78.00 78.00 L 946.00 78.00 L 946.00 946.00 L 78.00 946.00 Z" fill="#ffffff" fill-rule="evenodd" group-id="1" id="矩形" node-id="52" stroke="none" target-height="868" target-width="868" target-x="78" target-y="78"></path><g node-id="215"><path d="M 264.62 614.94 L 264.23 615.92 L 263.01 616.92 L 260.52 617.94 L 256.29 618.83 L 250.60 619.20 L 244.89 618.83 L 240.68 617.94 L 238.17 616.92 L 236.97 615.92 L 236.58 614.94 L 236.97 613.95 L 238.17 612.95 L 240.68 611.93 L 244.89 611.04 L 250.60 610.67 L 256.29 611.04 L 260.52 611.93 L 263.01 612.95 L 264.23 613.95 Z" fill="#85a0c7" fill-opacity="0.46671754" fill-rule="evenodd" group-id="1,3" node-id="183" stroke="none" target-height="8.528137" target-width="28.036407" target-x="236.58359" target-y="610.6699"></path><path d="M 238.28 614.86 L 239.60 614.64 L 242.18 612.58 L 244.83 609.61 L 248.13 605.35 L 254.66 595.74 L 260.30 586.24 L 263.60 579.36 L 264.49 575.30 L 264.53 571.52 L 263.75 567.92 L 262.17 564.64 L 260.00 562.15 L 257.16 560.35 L 253.92 559.59 L 250.82 559.83 L 247.69 561.09 L 244.96 563.15 L 242.70 565.97 L 240.90 569.70 L 239.21 577.25 L 237.65 588.49 L 236.69 600.49 L 236.76 610.28 L 237.43 613.73 Z" fill="url(#linearGradient-1)" fill-opacity="0.4493209" fill-rule="evenodd" group-id="1,3" node-id="185" stroke="none" target-height="55.269897" target-width="27.84111" target-x="236.6921" target-y="559.58813"></path><path d="M 238.99 614.90 L 240.10 613.71 L 241.25 609.80 L 241.92 605.01 L 242.38 598.54 L 242.55 584.56 L 241.94 571.35 L 240.77 562.41 L 239.12 557.96 L 236.76 554.36 L 233.70 551.49 L 230.29 549.67 L 226.58 548.91 L 222.76 549.37 L 219.25 551.02 L 216.36 553.71 L 214.25 557.14 L 212.93 561.26 L 212.54 565.69 L 213.17 570.42 L 216.29 578.79 L 221.87 590.55 L 228.49 602.55 L 231.87 607.91 L 234.67 611.71 L 237.47 614.47 Z" fill="url(#linearGradient-2)" fill-opacity="0.7793666" fill-rule="evenodd" group-id="1,3" node-id="187" stroke="none" target-height="65.989685" target-width="30.011093" target-x="212.54" target-y="548.91174"></path></g><path d="M 164.51 302.92 L 161.56 302.72 L 158.00 302.92 L 153.39 302.60 L 149.04 301.72 L 144.91 300.28 L 141.01 298.31 L 137.46 295.92 L 134.22 293.07 L 131.37 289.83 L 128.98 286.28 L 127.01 282.38 L 125.57 278.25 L 124.69 273.90 L 124.37 269.29 L 124.69 264.67 L 125.57 260.32 L 127.01 256.19 L 128.98 252.29 L 131.37 248.74 L 134.22 245.50 L 137.46 242.65 L 141.01 240.26 L 144.91 238.29 L 149.04 236.85 L 153.39 235.97 L 158.00 235.65 L 161.19 235.80 L 164.28 236.24 L 166.35 232.68 L 168.69 229.37 L 171.31 226.29 L 174.22 223.43 L 177.37 220.85 L 180.72 218.56 L 184.28 216.58 L 188.08 214.89 L 191.99 213.56 L 196.04 212.59 L 200.26 212.00 L 204.66 211.78 L 209.39 212.03 L 213.91 212.72 L 218.24 213.83 L 222.40 215.36 L 226.41 217.30 L 230.15 219.57 L 233.64 222.17 L 236.88 225.13 L 239.84 228.37 L 242.44 231.86 L 244.71 235.60 L 246.65 239.61 L 248.18 243.77 L 249.29 248.10 L 249.98 252.62 L 250.23 257.35 L 250.23 257.35 L 277.35 257.35 L 280.51 257.58 L 283.46 258.18 L 286.23 259.14 L 288.86 260.46 L 291.30 262.12 L 293.47 264.02 L 295.37 266.19 L 297.03 268.63 L 298.35 271.26 L 299.31 274.03 L 299.91 276.98 L 300.14 280.13 L 299.91 283.29 L 299.31 286.24 L 298.35 289.01 L 297.03 291.64 L 295.37 294.08 L 293.47 296.25 L 291.30 298.15 L 288.86 299.81 L 286.23 301.13 L 283.46 302.09 L 280.51 302.69 L 277.35 302.92 L 164.51 302.92 Z" fill="url(#linearGradient-3)" fill-opacity="0.7" fill-rule="evenodd" group-id="1" id="形状结合" node-id="57" stroke="none" target-height="91.139984" target-width="175.77002" target-x="124.369995" target-y="211.78"></path><path d="M 778.48 256.92 L 776.63 256.80 L 774.41 256.92 L 771.49 256.71 L 768.77 256.16 L 766.21 255.27 L 763.79 254.05 L 760.84 251.96 L 758.33 249.45 L 756.24 246.50 L 755.02 244.08 L 754.13 241.52 L 753.58 238.80 L 753.37 235.88 L 753.58 232.97 L 754.13 230.25 L 755.02 227.69 L 756.24 225.27 L 758.33 222.32 L 760.84 219.81 L 763.79 217.72 L 766.21 216.50 L 768.77 215.61 L 771.49 215.06 L 774.41 214.85 L 776.40 214.94 L 778.33 215.22 L 780.09 212.28 L 782.16 209.62 L 784.55 207.21 L 787.20 205.09 L 790.08 203.32 L 793.21 201.86 L 796.49 200.80 L 799.94 200.15 L 803.58 199.92 L 807.50 200.19 L 811.19 200.94 L 814.68 202.16 L 817.99 203.82 L 821.00 205.85 L 823.74 208.27 L 826.15 211.01 L 828.18 214.02 L 829.85 217.33 L 831.06 220.82 L 831.81 224.50 L 832.08 228.42 L 832.08 228.42 L 849.05 228.42 L 851.65 228.66 L 854.03 229.31 L 856.24 230.37 L 858.24 231.78 L 859.94 233.48 L 861.35 235.48 L 862.41 237.68 L 863.06 240.07 L 863.30 242.67 L 863.06 245.27 L 862.41 247.66 L 861.35 249.86 L 859.94 251.86 L 858.24 253.56 L 856.24 254.97 L 854.03 256.03 L 851.65 256.68 L 849.05 256.92 L 778.48 256.92 Z" fill="url(#linearGradient-4)" fill-opacity="0.7" fill-rule="evenodd" group-id="1" id="形状结合备份" node-id="58" stroke="none" target-height="56.999985" target-width="109.92859" target-x="753.37" target-y="199.92"></path><path d="M 121.80 720.32 L 135.23 701.72 L 147.93 686.14 L 159.93 673.27 L 171.32 662.82 L 182.10 654.48 L 192.39 648.04 L 202.22 643.26 L 211.68 639.99 L 220.84 638.08 L 229.80 637.45 L 238.65 638.06 L 247.92 639.90 L 257.69 643.11 L 268.04 647.82 L 279.08 654.22 L 290.91 662.55 L 303.56 673.04 L 317.17 685.95 L 331.79 701.61 L 347.48 720.32 Z" fill="url(#linearGradient-5)" fill-rule="evenodd" group-id="1,4" id="路径" node-id="60" stroke="none" target-height="82.87225" target-width="225.67998" target-x="121.8" target-y="637.4477"></path><path d="M 298.47 720.32 L 310.47 698.90 L 322.17 680.46 L 333.54 664.66 L 344.63 651.29 L 355.43 640.10 L 365.98 630.85 L 376.31 623.36 L 386.42 617.46 L 396.43 613.04 L 406.34 609.93 L 416.24 608.09 L 426.18 607.48 L 436.98 608.11 L 449.85 610.17 L 465.15 613.95 L 483.23 619.78 L 504.49 628.03 L 529.32 639.08 L 558.16 653.35 L 591.44 671.32 L 629.72 693.48 L 673.45 720.32 Z" fill="none" group-id="1,4" id="路径-2" node-id="61" stroke="none" target-height="112.839966" target-width="374.976" target-x="298.472" target-y="607.48"></path><path d="M 859.20 720.32 L 845.75 702.20 L 832.99 686.77 L 820.88 673.75 L 809.38 662.92 L 798.44 654.05 L 788.05 646.91 L 778.09 641.35 L 768.54 637.23 L 759.34 634.37 L 750.40 632.72 L 741.67 632.17 L 731.63 632.83 L 719.86 634.95 L 706.13 638.86 L 690.11 644.85 L 671.50 653.29 L 649.95 664.62 L 625.12 679.22 L 596.63 697.62 L 564.08 720.32 Z" fill="none" group-id="1,4" id="路径-3" node-id="62" stroke="none" target-height="88.145386" target-width="295.12" target-x="564.08" target-y="632.17456"></path><path d="M 807.85 615.29 L 807.18 616.50 L 804.70 617.74 L 801.47 618.44 L 797.09 618.74 L 792.73 618.44 L 789.49 617.74 L 787.02 616.50 L 786.35 615.29 L 787.02 614.10 L 789.49 612.86 L 792.73 612.14 L 797.09 611.86 L 801.47 612.14 L 804.70 612.86 L 807.18 614.10 Z" fill="#85a0c7" fill-opacity="0.66985214" fill-rule="evenodd" group-id="1,5" node-id="199" stroke="none" target-height="6.8789063" target-width="21.5047" target-x="786.34534" target-y="611.8611"></path><path d="M 787.65 615.25 L 788.95 614.92 L 791.68 612.58 L 797.72 605.11 L 803.58 596.37 L 807.07 589.88 L 807.76 586.97 L 807.78 584.26 L 807.18 581.70 L 805.98 579.38 L 804.31 577.60 L 802.12 576.29 L 799.65 575.75 L 797.26 575.93 L 794.87 576.82 L 792.77 578.31 L 791.03 580.33 L 789.64 582.98 L 788.04 590.20 L 786.71 600.75 L 786.39 610.47 L 786.89 614.12 Z" fill="url(#linearGradient-6)" fill-opacity="0.5765206" fill-rule="evenodd" group-id="1,5" node-id="201" stroke="none" target-height="39.49402" target-width="21.39618" target-x="786.38873" target-y="575.75226"></path><path d="M 787.13 615.27 L 788.17 614.07 L 789.19 610.02 L 789.69 605.11 L 789.90 598.93 L 789.60 586.78 L 789.08 581.42 L 788.52 578.36 L 787.21 575.17 L 785.39 572.65 L 783.07 570.67 L 780.36 569.35 L 777.54 568.85 L 774.54 569.16 L 771.78 570.37 L 769.61 572.17 L 767.92 574.67 L 766.92 577.51 L 766.64 580.57 L 767.12 583.98 L 768.18 586.91 L 770.48 591.81 L 776.38 602.49 L 779.75 607.74 L 782.68 611.73 L 785.61 614.75 Z" fill="url(#linearGradient-7)" fill-rule="evenodd" group-id="1,5" node-id="203" stroke="none" target-height="46.41632" target-width="23.26239" target-x="766.6417" target-y="568.8517"></path><path d="M 777.61 767.80 L 777.22 768.80 L 776.00 769.80 L 773.49 770.84 L 769.23 771.73 L 763.50 772.10 L 757.77 771.73 L 753.52 770.84 L 751.00 769.80 L 749.79 768.80 L 749.40 767.80 L 749.79 766.81 L 751.00 765.81 L 753.52 764.77 L 757.77 763.88 L 763.50 763.51 L 769.23 763.88 L 773.49 764.77 L 776.00 765.81 L 777.22 766.81 Z" fill="#85a0c7" fill-opacity="0.5353029" fill-rule="evenodd" group-id="1,6" node-id="207" stroke="none" target-height="8.593201" target-width="28.210022" target-x="749.398" target-y="763.50684"></path><path d="M 753.35 768.58 L 755.08 768.30 L 758.43 765.81 L 761.88 762.20 L 766.15 757.08 L 774.64 745.43 L 781.97 733.95 L 784.79 728.87 L 786.27 725.64 L 787.44 720.82 L 787.48 716.18 L 786.44 711.75 L 784.47 707.93 L 781.60 704.81 L 777.89 702.64 L 773.72 701.71 L 769.58 702.03 L 765.63 703.51 L 761.98 706.09 L 759.01 709.56 L 756.75 713.97 L 755.76 717.37 L 754.54 723.08 L 752.54 736.69 L 751.29 751.20 L 751.13 757.95 L 751.37 763.03 L 752.24 767.20 Z" fill="url(#linearGradient-8)" fill-opacity="0.5170562" fill-rule="evenodd" group-id="1,6" node-id="209" stroke="none" target-height="66.879395" target-width="36.347473" target-x="751.13403" target-y="701.7052"></path><path d="M 753.30 768.61 L 754.28 767.89 L 755.30 766.09 L 756.30 762.53 L 757.19 756.78 L 757.80 749.03 L 758.03 732.32 L 757.23 716.53 L 756.47 709.84 L 755.67 705.83 L 753.50 700.51 L 750.33 696.17 L 746.29 692.76 L 741.74 690.57 L 738.46 689.79 L 735.14 689.68 L 731.71 690.20 L 728.48 691.42 L 725.66 693.13 L 723.23 695.39 L 720.41 699.54 L 718.67 704.44 L 718.15 709.73 L 719.00 715.40 L 720.36 719.26 L 723.14 725.42 L 730.56 739.48 L 739.33 753.85 L 743.84 760.25 L 747.55 764.81 L 750.27 767.41 L 752.07 768.48 Z" fill="url(#linearGradient-9)" fill-opacity="0.8968564" fill-rule="evenodd" group-id="1,6" node-id="211" stroke="none" target-height="78.92291" target-width="39.884583" target-x="718.15" target-y="689.6834"></path></g><g node-id="214"><g node-id="219"><path d="M 517.98 605.36 L 517.98 616.93 L 446.51 616.93 L 406.45 616.93 L 432.54 577.89 L 435.69 573.70 L 439.18 569.96 L 443.01 566.66 L 447.17 563.78 L 451.57 561.40 L 456.21 559.50 L 461.04 558.12 L 465.99 557.28 L 471.11 556.99 L 475.98 557.26 L 480.62 557.99 L 485.07 559.16 L 489.35 560.79 L 493.47 562.85 L 497.32 565.25 L 500.90 568.02 L 504.25 571.16 L 507.28 574.60 L 509.96 578.29 L 512.29 582.27 L 514.29 586.54 L 515.87 590.95 L 517.01 595.54 L 517.72 600.34 L 517.98 605.36 Z" fill="url(#linearGradient-10)" fill-rule="evenodd" group-id="2,7" id="路径" node-id="73" stroke="none" target-height="59.93512" target-width="111.5271" target-x="406.4485" target-y="556.9908"></path><path d="M 518.07 675.00 L 509.79 675.00 L 509.79 596.19 L 509.48 591.63 L 508.61 587.34 L 507.19 583.27 L 505.26 579.42 L 502.90 575.91 L 500.09 572.72 L 496.91 569.91 L 493.41 567.54 L 489.57 565.61 L 485.51 564.19 L 481.23 563.32 L 476.68 563.00 L 472.38 563.30 L 468.40 564.11 L 464.70 565.42 L 461.18 567.20 L 457.90 569.37 L 454.83 571.96 L 452.04 574.86 L 449.46 578.06 L 447.09 581.58 L 444.57 585.76 L 444.57 585.76 L 441.65 590.47 L 441.65 590.47 L 436.95 597.79 L 436.95 597.79 L 435.30 600.33 L 435.30 600.33 L 433.15 603.16 L 430.46 605.90 L 427.16 608.56 L 423.60 610.88 L 419.73 612.88 L 415.51 614.59 L 411.15 615.86 L 406.71 616.64 L 402.19 616.93 L 397.96 616.70 L 393.93 616.10 L 390.06 615.12 L 386.33 613.77 L 382.73 612.06 L 379.37 610.06 L 376.24 607.76 L 373.31 605.16 L 370.63 602.29 L 368.26 599.21 L 366.18 595.90 L 364.38 592.34 L 362.94 588.65 L 361.86 584.81 L 361.15 580.81 L 360.82 576.61 L 360.80 575.44 L 360.80 417.81 L 307.00 417.81 L 307.00 370.11 L 307.25 366.18 L 307.94 362.46 L 309.07 358.92 L 310.61 355.54 L 312.50 352.42 L 314.76 349.54 L 317.33 346.94 L 320.17 344.67 L 323.29 342.73 L 326.63 341.17 L 330.15 340.02 L 333.91 339.27 L 331.83 339.07 L 331.83 339.00 L 530.49 339.00 L 535.21 339.25 L 539.72 339.94 L 544.05 341.05 L 548.21 342.59 L 552.21 344.53 L 555.95 346.80 L 559.43 349.41 L 562.68 352.36 L 565.62 355.61 L 568.23 359.10 L 570.49 362.85 L 572.43 366.87 L 573.96 371.04 L 575.07 375.37 L 575.76 379.89 L 576.01 384.63 L 576.01 554.70 L 369.08 554.70 L 369.08 575.44 L 369.39 580.00 L 370.26 584.29 L 371.68 588.36 L 373.61 592.21 L 375.97 595.72 L 378.78 598.91 L 381.96 601.72 L 385.46 604.08 L 389.30 606.02 L 393.36 607.44 L 397.64 608.31 L 402.19 608.63 L 406.20 608.38 L 410.00 607.70 L 413.64 606.59 L 417.12 605.07 L 420.36 603.19 L 423.36 600.96 L 426.09 598.41 L 428.50 595.58 L 430.61 592.47 L 433.21 587.87 L 433.21 587.87 L 434.13 586.27 L 434.13 586.27 L 435.67 583.66 L 435.67 583.66 L 437.44 580.76 L 437.44 580.76 L 438.77 578.65 L 438.77 578.65 L 440.22 576.37 L 440.22 576.37 L 441.82 573.92 L 441.82 573.92 L 443.58 571.29 L 443.58 571.29 L 445.93 568.23 L 448.73 565.39 L 452.01 562.74 L 455.55 560.45 L 459.38 558.49 L 463.51 556.88 L 467.79 555.69 L 472.17 554.97 L 476.68 554.70 L 480.98 554.93 L 485.08 555.56 L 489.01 556.57 L 492.79 557.96 L 496.44 559.73 L 499.83 561.80 L 503.00 564.17 L 505.95 566.85 L 508.63 569.81 L 510.99 572.98 L 513.05 576.38 L 514.82 580.04 L 516.21 583.83 L 517.22 587.77 L 517.84 591.88 L 518.07 596.19 L 518.07 675.00 Z" fill="#e0e6ed" fill-rule="evenodd" group-id="2,7" id="路径" node-id="74" stroke="none" target-height="336" target-width="269.0099" target-x="307" target-y="339"></path><path d="M 369.08 370.11 L 368.81 366.01 L 368.05 362.14 L 366.83 358.46 L 365.15 354.95 L 363.10 351.75 L 360.66 348.81 L 357.88 346.19 L 354.82 343.94 L 351.46 342.05 L 347.89 340.60 L 344.12 339.60 L 340.11 339.07 L 340.11 339.00 L 538.76 339.00 L 543.49 339.25 L 548.00 339.94 L 552.32 341.05 L 556.48 342.59 L 560.49 344.53 L 564.23 346.80 L 567.71 349.41 L 570.95 352.36 L 573.90 355.61 L 576.50 359.10 L 578.77 362.85 L 580.71 366.87 L 582.24 371.04 L 583.35 375.37 L 584.03 379.89 L 584.29 384.63 L 584.29 554.70 L 473.37 554.70 L 473.11 554.87 L 469.19 555.41 L 465.40 556.30 L 461.72 557.52 L 458.16 559.06 L 454.85 560.86 L 451.77 562.91 L 448.90 565.23 L 446.39 567.72 L 444.23 570.36 L 443.58 571.29 L 441.82 573.92 L 440.22 576.37 L 438.77 578.65 L 437.44 580.76 L 435.67 583.66 L 434.13 586.27 L 433.21 587.87 L 430.61 592.47 L 428.50 595.58 L 426.09 598.41 L 423.36 600.96 L 420.36 603.19 L 417.12 605.07 L 413.64 606.59 L 410.00 607.70 L 406.20 608.38 L 402.19 608.63 L 397.73 608.33 L 393.52 607.48 L 389.53 606.12 L 385.74 604.25 L 382.28 601.96 L 379.12 599.25 L 376.32 596.16 L 373.94 592.77 L 371.97 589.03 L 370.49 585.08 L 369.53 580.91 L 369.09 576.48 L 369.08 575.44 L 369.08 370.11 Z" fill="url(#linearGradient-11)" fill-rule="evenodd" group-id="2,7" id="路径" node-id="75" stroke="none" target-height="269.62964" target-width="244.17944" target-x="340.10748" target-y="339"></path><path d="M 315.28 370.11 L 315.51 366.95 L 316.10 364.00 L 317.06 361.22 L 318.38 358.60 L 320.04 356.15 L 321.94 353.98 L 324.11 352.07 L 326.55 350.41 L 329.17 349.08 L 331.94 348.12 L 334.89 347.52 L 338.04 347.30 L 338.04 347.30 L 341.19 347.52 L 344.14 348.12 L 346.91 349.08 L 349.53 350.41 L 351.97 352.07 L 354.13 353.98 L 356.04 356.15 L 357.69 358.60 L 359.02 361.22 L 359.98 364.00 L 360.57 366.95 L 360.80 370.11 L 360.80 417.81 L 315.28 417.81 L 315.28 370.11 Z" fill="url(#linearGradient-12)" fill-rule="nonzero" group-id="2,7" id="路径" node-id="76" stroke="none" target-height="70.518524" target-width="45.52475" target-x="315.27722" target-y="347.2963"></path><path d="M 679.48 554.70 L 684.20 554.96 L 688.71 555.64 L 693.04 556.75 L 697.20 558.29 L 701.20 560.23 L 704.94 562.50 L 708.42 565.11 L 711.67 568.07 L 714.61 571.32 L 717.22 574.81 L 719.48 578.55 L 721.42 582.57 L 722.95 586.74 L 724.06 591.07 L 724.75 595.60 L 725.00 600.33 L 725.00 675.00 L 518.07 675.00 L 518.07 596.19 L 517.85 591.95 L 517.24 587.91 L 516.27 584.03 L 514.92 580.29 L 513.22 576.68 L 511.22 573.32 L 508.93 570.17 L 506.33 567.24 L 503.46 564.56 L 500.39 562.18 L 497.09 560.09 L 493.54 558.29 L 489.86 556.84 L 486.03 555.77 L 482.03 555.06 L 477.84 554.72 L 476.68 554.70 L 679.48 554.70 Z" fill="url(#linearGradient-13)" fill-rule="evenodd" group-id="2,7" id="路径" node-id="77" stroke="none" target-height="120.296265" target-width="248.31683" target-x="476.68317" target-y="554.70374"></path><path d="M 414.60 397.07 L 547.04 397.07 L 547.04 409.52 L 414.60 409.52 Z" fill="#ffffff" fill-rule="nonzero" group-id="2,7" id="矩形" node-id="78" stroke="none" target-height="12.444458" target-width="132.43567" target-x="414.60394" target-y="397.07407"></path><path d="M 414.60 438.56 L 489.10 438.56 L 489.10 451.00 L 414.60 451.00 Z" fill="#ffffff" fill-rule="nonzero" group-id="2,7" id="矩形" node-id="79" stroke="none" target-height="12.444458" target-width="74.495056" target-x="414.60394" target-y="438.55554"></path><path d="M 414.60 488.33 L 476.68 488.33 L 476.68 500.78 L 414.60 500.78 Z" fill="#ffffff" fill-rule="nonzero" group-id="2,7" id="矩形" node-id="80" stroke="none" target-height="12.444458" target-width="62.079224" target-x="414.60394" target-y="488.3333"></path></g><g node-id="220"><path d="M 607.35 518.73 L 608.83 517.67 L 610.37 516.91 L 612.00 516.43 L 614.53 516.22 L 617.02 516.63 L 618.61 517.23 L 620.08 518.10 L 621.45 519.25 L 621.95 519.79 L 648.48 550.91 L 649.58 552.45 L 650.36 554.06 L 650.83 555.77 L 651.00 557.54 L 650.87 559.28 L 650.45 561.00 L 649.73 562.63 L 648.73 564.12 L 647.42 565.48 L 645.95 566.54 L 644.41 567.30 L 642.77 567.78 L 640.25 567.99 L 637.75 567.59 L 636.17 566.98 L 634.70 566.12 L 633.33 564.97 L 632.83 564.43 L 606.29 533.31 L 605.19 531.76 L 604.42 530.15 L 603.95 528.44 L 603.77 526.67 L 603.90 524.93 L 604.33 523.21 L 605.04 521.58 L 606.04 520.10 L 607.35 518.73 Z" fill="url(#linearGradient-14)" fill-rule="nonzero" group-id="2,8" id="路径" node-id="82" stroke="none" target-height="51.771606" target-width="47.224304" target-x="603.7744" target-y="516.22034"></path><path d="M 580.84 535.54 L 583.53 535.47 L 586.22 535.27 L 588.89 534.94 L 591.54 534.48 L 594.17 533.89 L 596.76 533.18 L 599.32 532.34 L 601.83 531.37 L 604.29 530.28 L 606.70 529.07 L 609.04 527.74 L 611.31 526.31 L 613.51 524.76 L 615.63 523.10 L 617.67 521.35 L 619.62 519.50 L 621.48 517.55 L 623.24 515.51 L 624.89 513.39 L 626.44 511.20 L 627.88 508.92 L 629.21 506.59 L 630.42 504.18 L 631.51 501.73 L 632.48 499.22 L 633.32 496.67 L 634.04 494.08 L 634.63 491.45 L 635.09 488.80 L 635.42 486.14 L 635.62 483.46 L 635.69 480.77 L 635.62 478.08 L 635.42 475.40 L 635.09 472.73 L 634.63 470.08 L 634.04 467.46 L 633.32 464.87 L 632.48 462.32 L 631.51 459.81 L 630.42 457.35 L 629.21 454.95 L 627.88 452.61 L 626.44 450.34 L 624.89 448.14 L 623.24 446.02 L 621.48 443.99 L 619.62 442.04 L 617.67 440.19 L 615.63 438.43 L 613.51 436.78 L 611.31 435.23 L 609.04 433.79 L 606.70 432.47 L 604.29 431.26 L 601.83 430.17 L 599.32 429.20 L 596.76 428.36 L 594.17 427.64 L 591.54 427.05 L 588.89 426.59 L 586.22 426.26 L 583.53 426.07 L 580.84 426.00 L 578.15 426.07 L 575.47 426.26 L 572.80 426.59 L 570.14 427.05 L 567.52 427.64 L 564.92 428.36 L 562.37 429.20 L 559.86 430.17 L 557.39 431.26 L 554.99 432.47 L 552.65 433.79 L 550.37 435.23 L 548.17 436.78 L 546.05 438.43 L 544.01 440.19 L 542.06 442.04 L 540.21 443.99 L 538.45 446.02 L 536.79 448.14 L 535.24 450.34 L 533.80 452.61 L 532.48 454.95 L 531.27 457.35 L 530.17 459.81 L 529.21 462.32 L 528.36 464.87 L 527.64 467.46 L 527.05 470.08 L 526.59 472.73 L 526.26 475.40 L 526.07 478.08 L 526.00 480.77 L 526.07 483.46 L 526.26 486.14 L 526.59 488.80 L 527.05 491.45 L 527.64 494.08 L 528.36 496.67 L 529.21 499.22 L 530.17 501.73 L 531.27 504.18 L 532.48 506.59 L 533.80 508.92 L 535.24 511.20 L 536.79 513.39 L 538.45 515.51 L 540.21 517.55 L 542.06 519.50 L 544.01 521.35 L 546.05 523.10 L 548.17 524.76 L 550.37 526.31 L 552.65 527.74 L 554.99 529.07 L 557.39 530.28 L 559.86 531.37 L 562.37 532.34 L 564.92 533.18 L 567.52 533.89 L 570.14 534.48 L 572.80 534.94 L 575.47 535.27 L 578.15 535.47 L 580.84 535.54 Z M 582.87 523.37 L 584.87 523.32 L 586.86 523.17 L 588.84 522.93 L 590.80 522.59 L 592.75 522.15 L 594.67 521.62 L 596.56 520.99 L 598.42 520.28 L 600.24 519.47 L 602.02 518.58 L 603.76 517.59 L 605.44 516.53 L 607.07 515.38 L 608.65 514.16 L 610.16 512.86 L 611.60 511.48 L 612.97 510.04 L 614.28 508.53 L 615.50 506.96 L 616.65 505.34 L 617.72 503.65 L 618.70 501.92 L 619.60 500.14 L 620.41 498.32 L 621.12 496.46 L 621.75 494.57 L 622.28 492.65 L 622.72 490.71 L 623.06 488.75 L 623.30 486.77 L 623.45 484.79 L 623.50 482.80 L 623.45 480.81 L 623.30 478.82 L 623.06 476.84 L 622.72 474.88 L 622.28 472.94 L 621.75 471.02 L 621.12 469.13 L 620.41 467.27 L 619.60 465.45 L 618.70 463.67 L 617.72 461.94 L 616.65 460.26 L 615.50 458.63 L 614.28 457.06 L 612.97 455.55 L 611.60 454.11 L 610.16 452.74 L 608.65 451.44 L 607.07 450.21 L 605.44 449.06 L 603.76 448.00 L 602.02 447.02 L 600.24 446.12 L 598.42 445.32 L 596.56 444.60 L 594.67 443.97 L 592.75 443.44 L 590.80 443.01 L 588.84 442.67 L 586.86 442.42 L 584.87 442.28 L 582.87 442.23 L 580.88 442.28 L 578.89 442.42 L 576.91 442.67 L 574.95 443.01 L 573.00 443.44 L 571.08 443.97 L 569.19 444.60 L 567.33 445.32 L 565.51 446.12 L 563.72 447.02 L 561.99 448.00 L 560.30 449.06 L 558.67 450.21 L 557.10 451.44 L 555.59 452.74 L 554.15 454.11 L 552.77 455.55 L 551.47 457.06 L 550.24 458.63 L 549.10 460.26 L 548.03 461.94 L 547.05 463.67 L 546.15 465.45 L 545.34 467.27 L 544.62 469.13 L 544.00 471.02 L 543.47 472.94 L 543.03 474.88 L 542.69 476.84 L 542.45 478.82 L 542.30 480.81 L 542.25 482.80 L 542.30 484.79 L 542.45 486.77 L 542.69 488.75 L 543.03 490.71 L 543.47 492.65 L 544.00 494.57 L 544.62 496.46 L 545.34 498.32 L 546.15 500.14 L 547.05 501.92 L 548.03 503.65 L 549.10 505.34 L 550.24 506.96 L 551.47 508.53 L 552.77 510.04 L 554.15 511.48 L 555.59 512.86 L 557.10 514.16 L 558.67 515.38 L 560.30 516.53 L 561.99 517.59 L 563.72 518.58 L 565.51 519.47 L 567.33 520.28 L 569.19 520.99 L 571.08 521.62 L 573.00 522.15 L 574.95 522.59 L 576.91 522.93 L 578.89 523.17 L 580.88 523.32 L 582.87 523.37 Z" fill="url(#linearGradient-15)" fill-rule="evenodd" group-id="2,8" id="形状" node-id="83" stroke="none" target-height="109.53638" target-width="109.68536" target-x="526" target-y="426"></path><path d="M 588.91 538.43 L 591.66 538.36 L 594.39 538.16 L 597.11 537.83 L 599.81 537.36 L 602.49 536.76 L 605.13 536.03 L 607.74 535.17 L 610.30 534.18 L 612.80 533.07 L 615.25 531.84 L 617.64 530.49 L 619.96 529.03 L 622.20 527.45 L 624.36 525.76 L 626.44 523.97 L 628.43 522.09 L 630.32 520.10 L 632.11 518.03 L 633.80 515.87 L 635.37 513.63 L 636.84 511.32 L 638.19 508.93 L 639.43 506.49 L 640.54 503.98 L 641.52 501.43 L 642.39 498.83 L 643.12 496.19 L 643.72 493.51 L 644.19 490.82 L 644.52 488.10 L 644.72 485.37 L 644.79 482.63 L 644.72 479.89 L 644.52 477.16 L 644.19 474.44 L 643.72 471.74 L 643.12 469.07 L 642.39 466.43 L 641.52 463.83 L 640.54 461.27 L 639.43 458.77 L 638.19 456.32 L 636.84 453.94 L 635.37 451.63 L 633.80 449.39 L 632.11 447.23 L 630.32 445.15 L 628.43 443.17 L 626.44 441.28 L 624.36 439.49 L 622.20 437.81 L 619.96 436.23 L 617.64 434.77 L 615.25 433.42 L 612.80 432.18 L 610.30 431.07 L 607.74 430.09 L 605.13 429.23 L 602.49 428.50 L 599.81 427.90 L 597.11 427.43 L 594.39 427.10 L 591.66 426.89 L 588.91 426.83 L 586.17 426.89 L 583.44 427.10 L 580.71 427.43 L 578.01 427.90 L 575.34 428.50 L 572.69 429.23 L 570.09 430.09 L 567.53 431.07 L 565.02 432.18 L 562.57 433.42 L 560.19 434.77 L 557.87 436.23 L 555.63 437.81 L 553.47 439.49 L 551.39 441.28 L 549.40 443.17 L 547.51 445.15 L 545.72 447.23 L 544.03 449.39 L 542.45 451.63 L 540.99 453.94 L 539.63 456.32 L 538.40 458.77 L 537.29 461.27 L 536.30 463.83 L 535.44 466.43 L 534.71 469.07 L 534.11 471.74 L 533.64 474.44 L 533.31 477.16 L 533.10 479.89 L 533.04 482.63 L 533.10 485.37 L 533.31 488.10 L 533.64 490.82 L 534.11 493.51 L 534.71 496.19 L 535.44 498.83 L 536.30 501.43 L 537.29 503.98 L 538.40 506.49 L 539.63 508.93 L 540.99 511.32 L 542.45 513.63 L 544.03 515.87 L 545.72 518.03 L 547.51 520.10 L 549.40 522.09 L 551.39 523.97 L 553.47 525.76 L 555.63 527.45 L 557.87 529.03 L 560.19 530.49 L 562.57 531.84 L 565.02 533.07 L 567.53 534.18 L 570.09 535.17 L 572.69 536.03 L 575.34 536.76 L 578.01 537.36 L 580.71 537.83 L 583.44 538.16 L 586.17 538.36 L 588.91 538.43 Z M 588.91 523.96 L 590.94 523.91 L 592.97 523.76 L 594.99 523.52 L 596.99 523.17 L 598.97 522.72 L 600.93 522.18 L 602.86 521.55 L 604.75 520.82 L 606.61 519.99 L 608.43 519.08 L 610.19 518.08 L 611.91 517.00 L 613.57 515.83 L 615.17 514.58 L 616.71 513.25 L 618.18 511.86 L 619.58 510.39 L 620.91 508.85 L 622.16 507.25 L 623.33 505.59 L 624.42 503.88 L 625.42 502.11 L 626.33 500.30 L 627.15 498.45 L 627.88 496.55 L 628.52 494.63 L 629.06 492.67 L 629.51 490.69 L 629.86 488.69 L 630.11 486.68 L 630.25 484.66 L 630.30 482.63 L 630.25 480.60 L 630.11 478.58 L 629.86 476.56 L 629.51 474.56 L 629.06 472.58 L 628.52 470.63 L 627.88 468.70 L 627.15 466.81 L 626.33 464.96 L 625.42 463.14 L 624.42 461.38 L 623.33 459.66 L 622.16 458.01 L 620.91 456.41 L 619.58 454.87 L 618.18 453.40 L 616.71 452.00 L 615.17 450.68 L 613.57 449.43 L 611.91 448.26 L 610.19 447.17 L 608.43 446.17 L 606.61 445.26 L 604.75 444.44 L 602.86 443.71 L 600.93 443.07 L 598.97 442.53 L 596.99 442.09 L 594.99 441.74 L 592.97 441.49 L 590.94 441.34 L 588.91 441.29 L 586.88 441.34 L 584.86 441.49 L 582.84 441.74 L 580.84 442.09 L 578.86 442.53 L 576.90 443.07 L 574.97 443.71 L 573.07 444.44 L 571.22 445.26 L 569.40 446.17 L 567.63 447.17 L 565.92 448.26 L 564.26 449.43 L 562.66 450.68 L 561.12 452.00 L 559.65 453.40 L 558.25 454.87 L 556.92 456.41 L 555.67 458.01 L 554.50 459.66 L 553.41 461.38 L 552.41 463.14 L 551.50 464.96 L 550.67 466.81 L 549.94 468.70 L 549.31 470.63 L 548.76 472.58 L 548.32 474.56 L 547.97 476.56 L 547.72 478.58 L 547.57 480.60 L 547.52 482.63 L 547.57 484.66 L 547.72 486.68 L 547.97 488.69 L 548.32 490.69 L 548.76 492.67 L 549.31 494.63 L 549.94 496.55 L 550.67 498.45 L 551.50 500.30 L 552.41 502.11 L 553.41 503.88 L 554.50 505.59 L 555.67 507.25 L 556.92 508.85 L 558.25 510.39 L 559.65 511.86 L 561.12 513.25 L 562.66 514.58 L 564.26 515.83 L 565.92 517.00 L 567.63 518.08 L 569.40 519.08 L 571.22 519.99 L 573.07 520.82 L 574.97 521.55 L 576.90 522.18 L 578.86 522.72 L 580.84 523.17 L 582.84 523.52 L 584.86 523.76 L 586.88 523.91 L 588.91 523.96 Z" fill="#eff2fa" fill-rule="evenodd" group-id="2,8" id="形状" node-id="84" stroke="none" target-height="111.60312" target-width="111.75488" target-x="533.03644" target-y="426.8267"></path></g></g></svg>