<?xml version="1.0" standalone="no"?><!DOCTYPE svg PUBLIC "-//W3C//DTD SVG 1.1//EN" "http://www.w3.org/Graphics/SVG/1.1/DTD/svg11.dtd"><svg t="1719326381113" class="icon" viewBox="0 0 1161 1024" version="1.1" xmlns="http://www.w3.org/2000/svg" p-id="56810" xmlns:xlink="http://www.w3.org/1999/xlink" width="72.5625" height="64"><path d="M580.666336 1024c320.698933 0 580.679355-48.585224 580.679355-108.509605 0-59.911362-259.980421-108.496586-580.679355-108.496586C259.980421 806.993809 0 855.579033 0 915.490395c0 59.924381 259.980421 108.509605 580.666336 108.509605z" fill="#F5F5F7" fill-opacity=".8" p-id="56811"></path><path d="M1045.207216 596.744244l-204.911959-252.195329c-9.842023-11.859898-24.214501-19.046137-39.342055-19.046137H360.37947c-15.127554 0-29.500032 7.186239-39.329036 19.046137L116.125456 596.744244v131.747715h929.068742v-131.747715z" fill="#AEB8C2" p-id="56812"></path><path d="M289.753843 0h581.824987a34.264821 34.264821 0 0 1 34.26482 34.264821v799.469087a34.264821 34.264821 0 0 1-34.26482 34.264821H289.753843a34.264821 34.264821 0 0 1-34.264821-34.264821V34.264821A34.264821 34.264821 0 0 1 289.753843 0z" fill="#F5F5F7" p-id="56813"></path><path d="M365.534816 85.245458h430.263041a17.13241 17.13241 0 0 1 17.13241 17.13241v213.751555a17.13241 17.13241 0 0 1-17.13241 17.13241h-430.263041a17.13241 17.13241 0 0 1-17.132411-17.13241V102.36485a17.13241 17.13241 0 0 1 17.132411-17.119392z m2.23919 340.994851h425.78466a19.371601 19.371601 0 0 1 0 38.75622H367.774006a19.371601 19.371601 0 0 1 0-38.75622z m0 100.763569h425.78466a19.384619 19.384619 0 0 1 0 38.743201H367.774006a19.371601 19.371601 0 1 1 0-38.75622zM1043.306508 899.581728c-6.63946 26.297469-29.942662 45.903403-57.672172 45.903404H175.698336c-27.729509 0-51.04573-19.605935-57.672172-45.903404a62.606202 62.606202 0 0 1-1.913726-15.33585V596.770281h225.416174c24.891465 0 44.966068 20.959864 44.966067 46.424145v0.338483c0 25.451263 20.295918 45.994533 45.187384 45.994533h297.929491c24.904484 0 45.200402-20.738548 45.200402-46.189812v-0.104148c0-25.451263 20.074602-46.47622 44.966068-46.476219h225.403155v287.514652c0 5.285531-0.650927 10.414839-1.88769 15.322832z" fill="#DCE0E6" p-id="56814"></path></svg>