<svg t="1740587033794" class="icon" viewBox="0 0 1024 1024" version="1.1" xmlns="http://www.w3.org/2000/svg" p-id="2050" xmlns:xlink="http://www.w3.org/1999/xlink" ><path d="M972 205.4H692v-150c0-27.61-22.39-50-50-50H382c-27.61 0-50 22.39-50 50v150H52c-27.61 0-50 22.39-50 50v220c0 27.61 22.39 50 50 50h10v402.03c0 53.17 44.86 96.43 100 96.43h700c55.14 0 100-43.26 100-96.43V525.4h10c27.61 0 50-22.39 50-50v-220c0-27.62-22.39-50-50-50z m-540-100h160v80H432v-80z m-330 200h820v120H102v-120z m760 618.45H667.65V768.6c0-27.61-22.39-50-50-50s-50 22.39-50 50v155.25h-111.3V768.6c0-27.61-22.39-50-50-50s-50 22.39-50 50v155.25H162V525.4h700v398.45z"  p-id="2051"></path></svg>